HIERARCHY
ROOT Hips
{
	OFFSET 0.00000 0.00000 0.00000
	CHANNELS 6 Xposition Yposition Zposition Yrotation Zrotation Xrotation 
	JOINT Lumbar
	{
		OFFSET 0 0 0
		CHANNELS 3 Zrotation Xrotation Yrotation
		JOINT Neck
		{
			OFFSET 0.00 0.2701 0.00
			CHANNELS 3 Zrotation Xrotation Yrotation
			End Site
			{
				OFFSET 0.00 0.1379 0.00
			}
		}
		JOINT RightShoulder
		{
			OFFSET 0.0119 0.2289 0.1181
			CHANNELS 3 Zrotation Xrotation Yrotation
			JOINT RightElbow
			{
				OFFSET 0.00 -0.1475 0.00
				CHANNELS 2 Zrotation Yrotation
				JOINT RightWrist
				{
					OFFSET 0.00 -0.1605 0.00
					CHANNELS 2 Zrotation Xrotation
					End Site
					{
						OFFSET 0.0040 -0.1068 0.0006
					}
				}
			}
		}
		JOINT LeftShoulder
		{
			OFFSET 0.0119 0.2289 -0.1181
			CHANNELS 3 Zrotation Xrotation Yrotation
			JOINT LeftElbow
			{
				OFFSET 0.00 -0.1475 0.00
				CHANNELS 2 Zrotation Yrotation
				JOINT LeftWrist
				{
					OFFSET 0.00 -0.1605 0.00
					CHANNELS 2 Zrotation Xrotation
					End Site
					{
						OFFSET 0.0040 -0.1068 -0.0006
					}
				}
			}
		}
	}
	JOINT RightHip
	{
		OFFSET 0.0316 -0.0424 0.0458
		CHANNELS 3 Zrotation Xrotation Yrotation
		JOINT RightKnee
		{
			OFFSET 0.00 -0.2438 0.00
			CHANNELS 1 Zrotation
			JOINT RightAnkle
			{
				OFFSET 0.00 -0.2449 0.00
				CHANNELS 3 Zrotation Xrotation Yrotation
				End Site
				{
					OFFSET 0.1237 -0.0542 0.0051
				}
			}
		}
	}
	JOINT LeftHip
	{
		OFFSET 0.0316 -0.0424 -0.0458
		CHANNELS 3 Zrotation Xrotation Yrotation
		JOINT LeftKnee
		{
			OFFSET 0.00 -0.2438 0.00
			CHANNELS 1 Zrotation
			JOINT LeftAnkle
			{
				OFFSET 0.00 -0.2449 0.00
				CHANNELS 3 Zrotation Xrotation Yrotation
				End Site
				{
					OFFSET 0.1237 -0.0542 -0.0051
				}
			}
		}
	}
}
MOTION
Frames: 17
Frame Time: 0.02
0 0.57926 0 175.7897 0 3.6161 7.17384 -1.89728 -2.0748 -34.3553 2.72525 5.58245 24.069 -15.72991 -5.87086 9.35347 77.76024 0.30929 1.86953 26.34133 3.2929 12.89791 5.82928 -79.87085 -5.32126 -0.19081 5.27286 -0.32163 3.86332 -22.3481 10.65133 -8.51981 -14.00009 4.73478 -2.29763 -5.53634 -18.15741 6.41226 5.99457 12.31046
-1e-05 0.57925 -6e-05 175.81784 0 3.61138 7.16833 -1.90238 -2.08736 -34.38162 2.74253 5.59033 24.1169 -15.74835 -5.7958 9.36855 78.00334 0.32545 1.89748 26.37228 3.29333 12.87593 5.82998 -79.36546 -5.32355 -0.13305 5.27025 -0.31243 3.84218 -22.35183 10.6554 -8.52059 -14.00918 4.75691 -2.2965 -5.59714 -18.19694 6.4207 6.00661 12.33901
-2e-05 0.57924 -0.00013 175.84576 0 3.60672 7.16278 -1.9075 -2.09976 -34.40817 2.75983 5.59828 24.16493 -15.76688 -5.72074 9.3835 78.24519 0.34151 1.92516 26.40346 3.29364 12.8541 5.83066 -78.86319 -5.32586 -0.07566 5.26778 -0.30325 3.82134 -22.35585 10.65956 -8.52141 -14.0183 4.77896 -2.29538 -5.65761 -18.2364 6.42916 6.01862 12.36744
-3e-05 0.57922 -0.00019 175.87295 0 3.60217 7.1571 -1.9126 -2.11171 -34.43541 2.7772 5.60654 24.21349 -15.7856 -5.64532 9.39812 78.48301 0.3572 1.95193 26.43539 3.29359 12.83262 5.83133 -78.3693 -5.3284 -0.01941 5.26561 -0.29403 3.80135 -22.36039 10.66387 -8.52227 -14.02743 4.80084 -2.29427 -5.71723 -18.27586 6.4377 6.03062 12.39574
-4e-05 0.57921 -0.00025 175.90384 0 3.59694 7.1522 -1.91765 -2.12611 -34.45842 2.79395 5.61312 24.2587 -15.80287 -5.57226 9.4146 78.74051 0.37471 1.9834 26.46281 3.2956 12.80925 5.83213 -77.83199 -5.32985 0.04261 5.26155 -0.28499 3.77669 -22.36139 10.66712 -8.52272 -14.03627 4.82353 -2.29308 -5.7812 -18.3152 6.44572 6.04268 12.42482
-5e-05 0.57919 -0.00032 175.92697 0 3.59323 7.14558 -1.92291 -2.13529 -34.49074 2.81217 5.6233 24.3113 -15.82346 -5.49399 9.42705 78.95726 0.38844 2.00497 26.5001 3.29315 12.78991 5.83261 -77.38638 -5.3335 0.09254 5.2617 -0.27559 3.76201 -22.3704 10.6728 -8.5242 -14.04585 4.84453 -2.29209 -5.836 -18.35484 6.4549 6.0546 12.45215
-7e-05 0.57917 -0.0004 175.92776 0 3.59319 7.13451 -1.92811 -2.13006 -34.54735 2.8338 5.64343 24.38344 -15.85208 -5.40107 9.42883 79.05367 0.39085 1.99809 26.56357 3.27888 12.78153 5.83249 -77.19694 -5.3444 0.10764 5.27209 -0.26477 3.77492 -22.39808 10.6841 -8.52744 -14.05658 4.8611 -2.29122 -5.86555 -18.39583 6.46702 6.06657 12.47594
-0.0001 0.57915 -0.00048 175.92089 0 3.59479 7.1216 -1.93365 -2.11957 -34.61361 2.85706 5.66722 24.46323 -15.8843 -5.30283 9.42645 79.11032 0.38958 1.98138 26.63721 3.26006 12.77731 5.83199 -77.0995 -5.3573 0.1108 5.287 -0.25364 3.79788 -22.43452 10.69808 -8.53196 -14.0682 4.87596 -2.29063 -5.88592 -18.43715 6.48038 6.07838 12.49781
-0.00012 0.57913 -0.00056 175.91809 0 3.596 7.10938 -1.93947 -2.11145 -34.67653 2.88002 5.68938 24.54024 -15.91563 -5.20704 9.42571 79.19058 0.39059 1.96988 26.70703 3.24291 12.77115 5.83144 -76.95762 -5.36851 0.12036 5.30077 -0.24293 3.8163 -22.46926 10.71158 -8.53661 -14.08003 4.89142 -2.2902 -5.91045 -18.47795 6.49334 6.08995 12.51972
-0.00015 0.57911 -0.00064 175.91272 0 3.59572 7.09792 -1.94349 -2.10336 -34.73531 2.90114 5.71143 24.61451 -15.94378 -5.11109 9.42607 79.24812 0.38914 1.95528 26.77367 3.22721 12.76487 5.8318 -76.82617 -5.38299 0.12583 5.3107 -0.2311 3.83475 -22.49439 10.72196 -8.5382 -14.08934 4.90748 -2.28857 -5.93483 -18.52004 6.50555 6.10267 12.54497
-0.00018 0.57909 -0.00072 175.91098 0 3.5989 7.08425 -1.95131 -2.09406 -34.80466 2.92644 5.73453 24.69604 -15.97947 -5.01428 9.42309 79.34268 0.39184 1.94477 26.84908 3.20769 12.76023 5.83021 -76.69575 -5.39115 0.13695 5.32969 -0.22148 3.85533 -22.54159 10.7395 -8.54652 -14.104 4.92207 -2.28949 -5.95756 -18.55987 6.5197 6.11315 12.563
-0.00024 0.57906 -0.0008 175.92057 0 3.61166 7.06609 -1.96994 -2.0821 -34.90305 2.96344 5.76 24.79725 -16.03446 -4.91593 9.41241 79.55644 0.40776 1.94815 26.94815 3.17643 12.75551 5.82291 -76.53803 -5.38147 0.16702 5.37295 -0.21827 3.88066 -22.64795 10.77606 -8.57262 -14.13413 4.93175 -2.29739 -5.97612 -18.59076 6.53827 6.11572 12.55982
-0.00031 0.57902 -0.00088 175.93434 0 3.62777 7.04522 -1.99237 -2.0694 -35.01072 3.00456 5.78628 24.90479 -16.09705 -4.81719 9.39844 79.80742 0.42783 1.95593 27.05493 3.14204 12.75289 5.81376 -76.37977 -5.36539 0.20308 5.42526 -0.21727 3.90739 -22.77633 10.81978 -8.60555 -14.16947 4.94042 -2.30784 -5.99367 -18.61999 6.55888 6.1163 12.54961
-0.00037 0.57898 -0.00096 175.94634 0 3.64202 7.02521 -2.01269 -2.05726 -35.11349 3.04336 5.81204 25.00896 -16.15656 -4.71868 9.38557 80.03665 0.44546 1.96157 27.15747 3.11047 12.75177 5.8057 -76.22654 -5.35214 0.23617 5.47301 -0.2151 3.93279 -22.89415 10.86025 -8.63567 -14.20178 4.95019 -2.31712 -6.0129 -18.65157 6.57896 6.119 12.54395
-0.00043 0.57894 -0.00103 175.95681 0 3.65768 7.008 -2.03435 -2.04334 -35.22203 3.08385 5.83884 25.11718 -16.21458 -4.6189 9.37402 80.28512 0.46532 1.96749 27.26523 3.07239 12.74076 5.79647 -76.05561 -5.33913 0.27005 5.52219 -0.21356 3.96203 -23.01386 10.90067 -8.66459 -14.23679 4.95649 -2.32645 -6.02668 -18.67592 6.59737 6.1168 12.5331
-0.0005 0.5789 -0.00111 175.97244 0 3.67127 6.98271 -2.05451 -2.03383 -35.31742 3.12209 5.86328 25.21623 -16.2775 -4.52282 9.35925 80.50262 0.48155 1.97396 27.3616 3.04776 12.75039 5.78938 -75.92111 -5.32426 0.30368 5.57125 -0.21127 3.98274 -23.13569 10.94301 -8.6976 -14.26757 4.97068 -2.33627 -6.05165 -18.71556 6.61978 6.12405 12.53067
-0.00061 0.57884 -0.00118 175.99424 0 3.67761 6.94876 -2.06627 -2.02949 -35.40031 3.15055 5.88344 25.30556 -16.35178 -4.42742 9.33459 80.62784 0.48697 1.98105 27.44286 3.05627 12.81834 5.78778 -75.87885 -5.30437 0.33677 5.61198 -0.20619 3.98572 -23.25095 10.98773 -8.74031 -14.28422 5.00038 -2.34708 -6.10818 -18.79385 6.65241 6.16036 12.55931
